<?xml version="1.0" standalone="no"?><!DOCTYPE svg PUBLIC "-//W3C//DTD SVG 1.1//EN" "http://www.w3.org/Graphics/SVG/1.1/DTD/svg11.dtd"><svg t="1661218517222" class="icon" viewBox="0 0 1024 1024" version="1.1" xmlns="http://www.w3.org/2000/svg" p-id="23932" xmlns:xlink="http://www.w3.org/1999/xlink" width="200" height="200"><defs><style type="text/css"></style></defs><path d="M307.2 204.8a51.2 51.2 0 0 1 51.2-51.2h307.2a51.2 51.2 0 0 1 51.2 51.2v51.2H307.2V204.8z" fill="#9486FF" p-id="23933"></path><path d="M204.8 358.4V307.2a51.2 51.2 0 0 1 51.2-51.2h512a51.2 51.2 0 0 1 51.2 51.2v51.2" fill="#FFBA00" p-id="23934"></path><path d="M153.6 358.4m51.2 0l614.4 0q51.2 0 51.2 51.2l0 409.6q0 51.2-51.2 51.2l-614.4 0q-51.2 0-51.2-51.2l0-409.6q0-51.2 51.2-51.2Z" fill="#6B57FE" p-id="23935"></path><path d="M541.2864 512l5.0176 6.0416-40.5504 222.4128-5.0176 4.1984H476.16l-5.0176-6.0416 40.5504-222.4128 5.0176-4.1984h24.576z m-126.8736 26.0608l7.2704 4.6592v24.576l-3.0208 4.6592-111.7184 50.944 111.7184 50.944 3.0208 4.6592v24.576l-7.2704 4.6592-155.4432-70.9632L256 632.1152v-18.432l2.9696-4.6592 155.4432-70.9632z m194.4064 0l155.4432 70.9632 2.9696 4.6592v18.432l-2.9696 4.6592-155.4432 70.9632-7.2704-4.6592v-24.576l3.0208-4.6592 111.7184-50.944-111.7184-50.944-3.0208-4.6592v-24.576l7.2704-4.6592z" fill="#FFFFFF" p-id="23936"></path></svg>